<?xml version="1.0" encoding="utf-8"?>
<!-- Generator: Adobe Illustrator 25.2.0, SVG Export Plug-In . SVG Version: 6.00 Build 0)  -->
<svg version="1.1" id="Layer_1" xmlns="http://www.w3.org/2000/svg" xmlns:xlink="http://www.w3.org/1999/xlink" x="0px" y="0px"
	 viewBox="0 0 326.05 135.33" style="enable-background:new 0 0 326.05 135.33;" xml:space="preserve">
<style type="text/css">
	.st0{fill:#FFFFFF;}
</style>
<g>
	<polygon class="st0" points="116.64,37.81 290.14,37.81 306.55,21.23 101.26,21.23 	"/>
	<polygon class="st0" points="105.35,108.89 274.24,108.57 288.09,92.31 117.87,92.31 	"/>
	<path class="st0" d="M74.2,21.23c-25.87,0-46.83,20.97-46.83,46.83c0,25.87,20.97,46.83,46.83,46.83
		c22.11,0,40.62-15.32,45.54-35.92c-0.46-1.85-0.71-3.89-0.71-6.17v-18.3C113.22,35.25,95.35,21.23,74.2,21.23z"/>
	<path class="st0" d="M202.41,87.32c-0.33,0-0.61-0.17-0.84-0.51c-0.23-0.34-0.34-0.73-0.34-1.19V44.74c0-0.45,0.11-0.85,0.34-1.19
		c0.23-0.34,0.51-0.51,0.84-0.51h8.46c0.33,0,0.61,0.17,0.84,0.51s0.34,0.73,0.34,1.19v40.89c0,0.45-0.11,0.85-0.34,1.19
		s-0.51,0.51-0.84,0.51H202.41z"/>
	<path class="st0" d="M227.64,87.32c-0.36,0-0.68-0.17-0.96-0.51c-0.27-0.34-0.41-0.73-0.41-1.19V54.17h-9.41
		c-0.39,0-0.72-0.17-0.98-0.51c-0.26-0.34-0.39-0.75-0.39-1.24v-7.68c0-0.45,0.13-0.85,0.39-1.19c0.26-0.34,0.58-0.51,0.98-0.51
		h31.46c0.39,0,0.73,0.17,1,0.51s0.41,0.73,0.41,1.19v7.68c0,0.49-0.14,0.9-0.41,1.24c-0.27,0.34-0.61,0.51-1,0.51h-9.37v31.46
		c0,0.45-0.13,0.85-0.39,1.19c-0.26,0.34-0.58,0.51-0.98,0.51H227.64z"/>
	<path class="st0" d="M252.78,87.32c-0.36,0-0.68-0.17-0.96-0.51s-0.41-0.73-0.41-1.19V44.74c0-0.45,0.14-0.85,0.41-1.19
		s0.59-0.51,0.96-0.51h26.5c0.36,0,0.68,0.17,0.95,0.51s0.41,0.73,0.41,1.19v8.25c0,0.49-0.14,0.9-0.41,1.24s-0.59,0.51-0.95,0.51
		h-15.28v4.52h13.05c0.36,0,0.68,0.17,0.96,0.51c0.27,0.34,0.41,0.73,0.41,1.19v8.13c0,0.49-0.14,0.9-0.41,1.24
		s-0.59,0.51-0.96,0.51l-13.05,0.06v4.74h16.5c0.39,0,0.72,0.17,0.98,0.51s0.39,0.75,0.39,1.24v8.25c0,0.45-0.13,0.85-0.39,1.19
		s-0.58,0.51-0.98,0.51H252.78z"/>
	<polygon class="st0" points="305.57,108.57 291.69,92.31 277.84,108.57 	"/>
	<path class="st0" d="M285.17,87.32l-1.88-44.99h16.85l-1.88,44.99H285.17z"/>
	<g id="g5">
		<path id="path7" class="st0" d="M96.59,62.47c0.49-0.25,0.75-0.58,0.87,0.37c0.12,0.95-1.09,8.34-1.54,9.17
			c-0.27,0.5-1.41,6.64-2.07,8.05s-0.96,1.01-2.32,2.82c0,0-1.12,2.12-1.79,2.8c-0.68,0.68-1.25,1.37-1.35,1.76
			s-0.81,8.72-0.52,10.98c0,2.38,0.04,8.29-0.15,9.13c-0.19,0.84-0.39,1.96-0.39,2.91c0,0-0.44,5.3-0.99,5.51
			c-12.62,4.77-29.61-1.56-29.61-1.56s-1.38-2.93-0.27-10.96c1.11-8.03,1.73-10.87,2.86-17.41c0.43-0.98-4.14-5.58-7.8-11.96
			c-3.74-6.51-11.42-14.54-11.42-16.97c0-2.43,10.93-21.69,14.39-21.16c2.94,0.45,20.11,7.79,20.39,8.75
			c0.28,0.95-0.1,5.55-1.73,6.31c-1.63,0.76-6.59,2.7-9.35,2.09c0,0-4.02-4.38-5.47-5.05c0,0-0.38,0.26,0.09,1.44
			s-0.63,4.2-2.38,5.42c0,0-1.32,0.19-1.21,0.41s0.31,0.53,1.83,0.73c1.51,0.2,2.51,1.02,3.09,1.32c0.59,0.3,2.69,0.73,3.89,1.43
			c1.2,0.71,14.13,19.82,14.12,20.73c-0.01,0.92-4.13,3.97-5.94,4.14c0,0-0.3,0,0,0.3c0.3,0.3,3.91-0.06,4.29,0.32
			c0.38,0.38,0.12,1.37,0.4,2.3c0.28,0.93,1.36,7.94,1.12,9.08c0,0-0.13,0.96,0.24,1.72c0.16,0.93,0.43,4.97,0.32,5.33
			c-0.1,0.36,0.23,0.69,0.23,0.69s0.37-0.18,0.37-0.86c0-0.68-0.89-15.79-0.24-16.38c0,0,0.61-0.78,1.14-0.78
			c0.53,0,1.5-0.97,1.94-1.21c0,0,0.25-0.31-0.42-0.66c-0.67-0.36-1.92-1.13-2.5-3.61c-0.7-1.21-1.47-4-2.56-6.53
			c-1.09-2.53-0.83-2.2-0.83-2.2s-5.77-6.93-7.54-9.26c0,0-0.97-1.29,0-1.23c0.97,0.05,8.58,1.66,9.7,2.11
			c1.12,0.44,3.21,0.28,4.91,2.4c1.98,1.76,3.47,3.41,4.14,3.66c0,0,0.54,0.36,0.75,0.87c0.21,0.51,0.61,0.52,0.83,0.21"/>
		<path id="path9" class="st0" d="M101.96,53.63l-3.94-4.04c-0.63-0.65-2.03-1.5-2.75-0.81L83.63,62.71
			c-0.72,0.69-0.79,1.79-0.17,2.44l3.17,3.28c0.63,0.65,1.72,0.61,2.44-0.08l12.72-12.28C102.51,55.38,102.58,54.28,101.96,53.63z"
			/>
		<path id="path11" class="st0" d="M93.21,44.54l-4.73-4.67c-1.23-0.97-3.02-0.76-3.99,0.47l-10.8,15.45
			c-0.97,1.23-0.76,3.02,0.47,3.99l5.09,2.43c1.23,0.97,3.02,0.76,3.99-0.47l10.44-13.22C94.65,47.3,94.44,45.51,93.21,44.54z"/>
		<path id="path13" class="st0" d="M65.15,39.2l-5.77-2.48c-0.61-0.39-2.12-1.15-2.3-1.8c-0.21-0.75,1.3-2.05,1.75-2.75l4.49-7
			c0.84-1.32,2.61-1.7,3.93-0.86l4.87,3.12c0.73,0.47,1.63,1.07,1.74,1.87c0.09,0.64-0.5,1.47-0.88,2.05l-4.49,7
			C67.64,39.68,66.46,40.05,65.15,39.2z"/>
		<path id="path15" class="st0" d="M78.33,29.83l6.03,3.61c1.34,0.8,1.78,2.56,0.98,3.9l-4.2,7.01c-0.35,0.59-0.8,0.94-1.2,1.44
			c-0.17,0.21-0.68,0.62-1.13,1.29c-1.05,1.55-2.68,3.69-3.21,3.37c-1.05-1.61,0.42-4.38,0.37-5.89c-0.05-1.33-3.76-2.33-4.75-2.85
			c-0.63-0.38-2-0.63-2.19-1.28c-0.22-0.74,0.79-1.91,1.21-2.62l4.2-7.01C75.23,29.47,76.99,29.03,78.33,29.83z"/>
		<path id="path17" class="st0" d="M74.33,52.1c0,0,0.29,0.01,0.02,0.54c-0.35,0.52-4.27,4.91-4.71,5.57
			c-0.45,0.67-0.69,0.85-0.98,0.75c-2.38-0.83-6.89-3.86-7.55-4.63c-0.33-0.38-0.68-1.6,0.73-1.88c0.85-0.05,0.86,0.27,1.54,1.41
			c0.68,1.13,3.07,0.39,4.19,0.09"/>
	</g>
	<path class="st0" d="M183.81,61.09c0.85,1.45,1.71,2.93,2.59,4.43V44.74c0-0.45,0.14-0.85,0.41-1.19c0.27-0.34,0.61-0.51,1-0.51
		h8.87c0.39,0,0.73,0.17,1,0.51s0.41,0.73,0.41,1.19v40.89c0,0.45-0.14,0.85-0.41,1.19s-0.61,0.51-1,0.51H186.5
		c-0.15,0-0.35-0.07-0.59-0.2c-0.24-0.13-0.42-0.29-0.55-0.48l-12.82-21.46v20.44c0,0.45-0.14,0.85-0.41,1.19s-0.61,0.51-1,0.51
		h-8.87c-0.36,0-0.68-0.17-0.96-0.51s-0.41-0.73-0.41-1.19V44.74c0-0.45,0.14-0.85,0.41-1.19s0.59-0.51,0.96-0.51h10.09
		c0.18,0,0.4,0.08,0.66,0.23c0.26,0.15,0.42,0.32,0.48,0.51c1.33,2.26,2.63,4.45,3.89,6.58c1.26,2.13,2.54,4.26,3.84,6.41
		C182.1,58.2,182.97,59.64,183.81,61.09z"/>
	<path class="st0" d="M158.49,43.5c-0.27-0.34-0.59-0.51-0.95-0.51h-9.37c-0.39,0-0.73,0.17-1,0.51c-0.27,0.34-0.41,0.73-0.41,1.19
		v23.1c0,2.6-0.48,4.47-1.45,5.62c-0.97,1.15-2.55,1.72-4.73,1.72c-2.3,0-3.95-0.54-4.93-1.64c-0.99-1.09-1.48-2.94-1.48-5.53V44.68
		c0-0.45-0.14-0.85-0.41-1.19s-0.61-0.51-1-0.51h-9.32c-0.39,0-0.73,0.17-1,0.51c-0.04,0.05-0.05,0.1-0.09,0.15
		c-0.2,0.31-0.32,0.64-0.32,1.03v28.12c0,4.94,1.18,8.58,3.5,10.96c0.42,0.43,0.87,0.83,1.37,1.18c2.94,2.03,7.44,3.05,13.5,3.05
		c5.88,0,10.37-1.02,13.46-3.05c3.36-2.26,5.05-6.12,5.05-11.58V44.68C158.9,44.23,158.76,43.84,158.49,43.5z"/>
	<path class="st0" d="M119.74,78.98c-4.92,20.6-23.44,35.92-45.54,35.92c-25.87,0-46.83-20.97-46.83-46.83
		c0-25.87,20.97-46.83,46.83-46.83c21.15,0,39.02,14.02,44.83,33.28v-9.82v-6.81c-9.7-14.72-26.36-24.44-45.3-24.44
		c-29.95,0-54.23,24.28-54.23,54.23s24.28,54.23,54.23,54.23c23.2,0,42.99-14.58,50.74-35.07
		C122.15,84.96,120.57,82.33,119.74,78.98z"/>
</g>
</svg>
